<mxfile host="app.diagrams.net" modified="2020-09-11T08:00:22.315Z" agent="5.0 (Windows NT 10.0; WOW64) AppleWebKit/537.36 (KHTML, like Gecko) Chrome/74.0.3729.40 Safari/537.36" etag="uc7YMA4fWmqle2II8-53" version="13.6.9" type="github">
  <diagram id="HzUUfRSB4Igp9ei8tjWV" name="Page-1">
    <mxGraphModel dx="1264" dy="563" grid="1" gridSize="10" guides="1" tooltips="1" connect="1" arrows="1" fold="1" page="1" pageScale="1" pageWidth="827" pageHeight="1169" math="0" shadow="0">
      <root>
        <mxCell id="0" />
        <mxCell id="1" parent="0" />
        <mxCell id="xUwn8GAPl0niTqzYPcF8-1" value="" style="rounded=0;whiteSpace=wrap;html=1;" vertex="1" parent="1">
          <mxGeometry x="90" y="130" width="20" height="20" as="geometry" />
        </mxCell>
        <mxCell id="xUwn8GAPl0niTqzYPcF8-2" value="" style="verticalLabelPosition=bottom;verticalAlign=top;html=1;shape=mxgraph.basic.tick" vertex="1" parent="1">
          <mxGeometry x="95" y="135" width="10" height="10" as="geometry" />
        </mxCell>
        <mxCell id="xUwn8GAPl0niTqzYPcF8-3" value="" style="rounded=0;whiteSpace=wrap;html=1;" vertex="1" parent="1">
          <mxGeometry x="85" y="280" width="20" height="20" as="geometry" />
        </mxCell>
        <mxCell id="xUwn8GAPl0niTqzYPcF8-5" value="" style="rounded=0;whiteSpace=wrap;html=1;" vertex="1" parent="1">
          <mxGeometry x="490" y="380" width="20" height="20" as="geometry" />
        </mxCell>
        <mxCell id="xUwn8GAPl0niTqzYPcF8-6" value="" style="rounded=0;whiteSpace=wrap;html=1;" vertex="1" parent="1">
          <mxGeometry x="490" y="350" width="20" height="20" as="geometry" />
        </mxCell>
        <mxCell id="xUwn8GAPl0niTqzYPcF8-7" value="" style="rounded=0;whiteSpace=wrap;html=1;" vertex="1" parent="1">
          <mxGeometry x="490" y="320" width="20" height="20" as="geometry" />
        </mxCell>
        <mxCell id="xUwn8GAPl0niTqzYPcF8-8" value="" style="rounded=0;whiteSpace=wrap;html=1;" vertex="1" parent="1">
          <mxGeometry x="490" y="270" width="20" height="20" as="geometry" />
        </mxCell>
        <mxCell id="xUwn8GAPl0niTqzYPcF8-9" value="" style="rounded=0;whiteSpace=wrap;html=1;" vertex="1" parent="1">
          <mxGeometry x="490" y="240" width="20" height="20" as="geometry" />
        </mxCell>
        <mxCell id="xUwn8GAPl0niTqzYPcF8-10" value="" style="rounded=0;whiteSpace=wrap;html=1;" vertex="1" parent="1">
          <mxGeometry x="490" y="210" width="20" height="20" as="geometry" />
        </mxCell>
        <mxCell id="xUwn8GAPl0niTqzYPcF8-11" value="" style="rounded=0;whiteSpace=wrap;html=1;" vertex="1" parent="1">
          <mxGeometry x="490" y="180" width="20" height="20" as="geometry" />
        </mxCell>
        <mxCell id="xUwn8GAPl0niTqzYPcF8-12" value="" style="rounded=0;whiteSpace=wrap;html=1;" vertex="1" parent="1">
          <mxGeometry x="490" y="135" width="20" height="20" as="geometry" />
        </mxCell>
        <mxCell id="xUwn8GAPl0niTqzYPcF8-13" value="" style="rounded=0;whiteSpace=wrap;html=1;" vertex="1" parent="1">
          <mxGeometry x="490" y="100" width="20" height="20" as="geometry" />
        </mxCell>
        <mxCell id="xUwn8GAPl0niTqzYPcF8-14" value="" style="rounded=0;whiteSpace=wrap;html=1;" vertex="1" parent="1">
          <mxGeometry x="490" y="70" width="20" height="20" as="geometry" />
        </mxCell>
        <mxCell id="xUwn8GAPl0niTqzYPcF8-15" value="" style="rounded=0;whiteSpace=wrap;html=1;" vertex="1" parent="1">
          <mxGeometry x="340" y="420" width="20" height="20" as="geometry" />
        </mxCell>
        <mxCell id="xUwn8GAPl0niTqzYPcF8-16" value="" style="rounded=0;whiteSpace=wrap;html=1;" vertex="1" parent="1">
          <mxGeometry x="340" y="350" width="20" height="20" as="geometry" />
        </mxCell>
        <mxCell id="xUwn8GAPl0niTqzYPcF8-17" value="" style="rounded=0;whiteSpace=wrap;html=1;" vertex="1" parent="1">
          <mxGeometry x="340" y="500" width="20" height="20" as="geometry" />
        </mxCell>
        <mxCell id="xUwn8GAPl0niTqzYPcF8-18" value="" style="rounded=0;whiteSpace=wrap;html=1;" vertex="1" parent="1">
          <mxGeometry x="340" y="210" width="20" height="20" as="geometry" />
        </mxCell>
        <mxCell id="xUwn8GAPl0niTqzYPcF8-19" value="" style="rounded=0;whiteSpace=wrap;html=1;" vertex="1" parent="1">
          <mxGeometry x="340" y="100" width="20" height="20" as="geometry" />
        </mxCell>
        <mxCell id="xUwn8GAPl0niTqzYPcF8-20" value="" style="rounded=0;whiteSpace=wrap;html=1;" vertex="1" parent="1">
          <mxGeometry x="85" y="530" width="20" height="20" as="geometry" />
        </mxCell>
        <mxCell id="xUwn8GAPl0niTqzYPcF8-21" value="" style="rounded=0;whiteSpace=wrap;html=1;" vertex="1" parent="1">
          <mxGeometry x="85" y="410" width="20" height="20" as="geometry" />
        </mxCell>
        <mxCell id="xUwn8GAPl0niTqzYPcF8-55" value="" style="verticalLabelPosition=bottom;verticalAlign=top;html=1;shape=mxgraph.basic.tick" vertex="1" parent="1">
          <mxGeometry x="345" y="105" width="10" height="10" as="geometry" />
        </mxCell>
        <mxCell id="xUwn8GAPl0niTqzYPcF8-56" value="" style="verticalLabelPosition=bottom;verticalAlign=top;html=1;shape=mxgraph.basic.tick" vertex="1" parent="1">
          <mxGeometry x="500" y="215" width="10" height="10" as="geometry" />
        </mxCell>
        <mxCell id="xUwn8GAPl0niTqzYPcF8-57" value="" style="verticalLabelPosition=bottom;verticalAlign=top;html=1;shape=mxgraph.basic.tick" vertex="1" parent="1">
          <mxGeometry x="495" y="140" width="10" height="10" as="geometry" />
        </mxCell>
        <mxCell id="xUwn8GAPl0niTqzYPcF8-58" value="" style="verticalLabelPosition=bottom;verticalAlign=top;html=1;shape=mxgraph.basic.tick" vertex="1" parent="1">
          <mxGeometry x="495" y="105" width="10" height="10" as="geometry" />
        </mxCell>
        <mxCell id="xUwn8GAPl0niTqzYPcF8-59" value="" style="verticalLabelPosition=bottom;verticalAlign=top;html=1;shape=mxgraph.basic.tick" vertex="1" parent="1">
          <mxGeometry x="345" y="215" width="10" height="10" as="geometry" />
        </mxCell>
        <mxCell id="xUwn8GAPl0niTqzYPcF8-60" value="" style="verticalLabelPosition=bottom;verticalAlign=top;html=1;shape=mxgraph.basic.tick" vertex="1" parent="1">
          <mxGeometry x="90" y="285" width="10" height="10" as="geometry" />
        </mxCell>
        <mxCell id="xUwn8GAPl0niTqzYPcF8-81" value="Text" style="text;html=1;strokeColor=none;fillColor=none;align=center;verticalAlign=middle;whiteSpace=wrap;rounded=0;" vertex="1" parent="1">
          <mxGeometry x="30" y="130" width="40" height="20" as="geometry" />
        </mxCell>
        <mxCell id="xUwn8GAPl0niTqzYPcF8-82" value="Text" style="text;html=1;strokeColor=none;fillColor=none;align=center;verticalAlign=middle;whiteSpace=wrap;rounded=0;" vertex="1" parent="1">
          <mxGeometry x="20" y="280" width="40" height="20" as="geometry" />
        </mxCell>
        <mxCell id="xUwn8GAPl0niTqzYPcF8-83" value="Text" style="text;html=1;strokeColor=none;fillColor=none;align=center;verticalAlign=middle;whiteSpace=wrap;rounded=0;" vertex="1" parent="1">
          <mxGeometry x="20" y="410" width="40" height="20" as="geometry" />
        </mxCell>
        <mxCell id="xUwn8GAPl0niTqzYPcF8-84" value="Text" style="text;html=1;strokeColor=none;fillColor=none;align=center;verticalAlign=middle;whiteSpace=wrap;rounded=0;" vertex="1" parent="1">
          <mxGeometry x="30" y="520" width="40" height="20" as="geometry" />
        </mxCell>
      </root>
    </mxGraphModel>
  </diagram>
</mxfile>
